<?xml version="1.0" encoding="UTF-8" standalone="no"?>
<!-- Created with Inkscape (http://www.inkscape.org/) -->

<svg
   xmlns:dc="http://purl.org/dc/elements/1.1/"
   xmlns:cc="http://creativecommons.org/ns#"
   xmlns:rdf="http://www.w3.org/1999/02/22-rdf-syntax-ns#"
   xmlns:svg="http://www.w3.org/2000/svg"
   xmlns="http://www.w3.org/2000/svg"
   xmlns:sodipodi="http://sodipodi.sourceforge.net/DTD/sodipodi-0.dtd"
   xmlns:inkscape="http://www.inkscape.org/namespaces/inkscape"
   width="16"
   height="16"
   viewBox="0 0 4.2333334 4.2333334"
   version="1.1"
   id="svg8"
   inkscape:version="0.92.3 (2405546, 2018-03-11)"
   sodipodi:docname="rocforjs16-16.svg"
   inkscape:export-filename="/mnt/ROCCO/InfoProyectos/htdocs/proyectos/jsprolibs/rocfor.js-project/project-dev/web-dev/rocforjs-web/img/rocforjs.png"
   inkscape:export-xdpi="99"
   inkscape:export-ydpi="99">
  <defs
     id="defs2" />
  <sodipodi:namedview
     id="base"
     pagecolor="#ffffff"
     bordercolor="#666666"
     borderopacity="1.0"
     inkscape:pageopacity="0.0"
     inkscape:pageshadow="2"
     inkscape:zoom="32"
     inkscape:cx="5.6743077"
     inkscape:cy="5.2141072"
     inkscape:document-units="mm"
     inkscape:current-layer="g1201"
     showgrid="false"
     inkscape:window-width="1920"
     inkscape:window-height="1051"
     inkscape:window-x="0"
     inkscape:window-y="1"
     inkscape:window-maximized="1"
     inkscape:object-nodes="false"
     units="px"
     inkscape:pagecheckerboard="true" />
  <metadata
     id="metadata5">
    <rdf:RDF>
      <cc:Work
         rdf:about="">
        <dc:format>image/svg+xml</dc:format>
        <dc:type
           rdf:resource="http://purl.org/dc/dcmitype/StillImage" />
        <dc:title></dc:title>
      </cc:Work>
    </rdf:RDF>
  </metadata>
  <g
     inkscape:label="black-2"
     id="g1201"
     inkscape:groupmode="layer"
     style="display:inline"
     transform="translate(0,-38.766666)">
    <path
       style="display:inline;opacity:0.98600003;fill:#000000;fill-opacity:1;stroke:#fffffc;stroke-width:0.04905885;stroke-linecap:round;stroke-miterlimit:4;stroke-dasharray:none;stroke-opacity:1"
       d="m 2.1166666,38.791196 c -1.15545093,1.1e-5 -2.09212639,0.936686 -2.09213717,2.092137 1.084e-5,1.155451 0.93668629,2.092127 2.09213717,2.092137 1.1554509,-1e-5 2.0921264,-0.936686 2.0921373,-2.092137 -7.79e-5,-0.41877 -0.1258925,-0.827821 -0.3610106,-1.174298 l -0.00178,-0.003 c -2.907e-4,5.03e-4 -0.00131,0.0019 -0.00167,0.0024 -0.028856,0.03484 -0.050142,0.06192 -0.088427,0.111346 3.427e-4,5.09e-4 6.724e-4,10e-4 0.00102,0.0015 -0.057203,0.07087 -0.122955,0.150651 -0.1440493,0.177767 -0.035419,0.0459 -0.07219,0.08791 -0.1102298,0.125948 -0.1154284,0.115429 -0.2216577,0.173101 -0.3187238,0.173103 -0.095754,-0.0013 -0.1862585,-0.04459 -0.2715184,-0.129853 -0.039351,-0.03935 -0.070851,-0.0813 -0.094461,-0.125897 -0.02361,-0.0446 -0.035391,-0.09054 -0.035391,-0.137762 -0.00131,-0.04853 0.010469,-0.09837 0.035391,-0.149525 0.024923,-0.05378 0.066256,-0.109507 0.1239706,-0.167221 0.049844,-0.04984 0.094453,-0.08657 0.133807,-0.110179 0.039348,-0.02624 0.3058117,-0.20645 0.3479798,-0.227204 -5.19e-5,-3.4e-5 -1.039e-4,-1.19e-4 -1.558e-4,-1.53e-4 2.6e-5,-2.1e-5 7.79e-5,-2.9e-5 1.039e-4,-5.2e-5 -0.050769,-0.04065 -0.1033348,-0.07856 -0.1572829,-0.114083 -0.011944,-0.0084 -0.027247,-0.01935 -0.036558,-0.02591 -6.75e-4,1.17e-4 -0.00206,6.14e-4 -0.00279,7.61e-4 -0.3314703,-0.207798 -0.7159259,-0.319704 -1.110361,-0.319837 z m 0.187401,0.233998 c 0.2747681,5.16e-4 0.5196946,0.04231 0.749401,0.154443 -0.067209,0.03086 -0.1330546,0.06402 -0.1581447,0.08158 -0.052471,0.03673 -0.1304843,0.08267 -0.1855757,0.137762 -0.091818,0.09182 -0.158045,0.184271 -0.198708,0.277401 -0.040666,0.09051 -0.060341,0.17973 -0.059019,0.267614 0,0.08657 0.019003,0.169853 0.057042,0.249868 0.03804,0.08001 0.090488,0.153461 0.1573843,0.220358 h 5.2e-5 c 0.068208,0.06821 0.1416576,0.121988 0.2203583,0.161339 0.080014,0.03804 0.1632958,0.05704 0.249868,0.05704 0.086571,2e-6 0.1757451,-0.02095 0.2675638,-0.06292 0.09313,-0.04329 0.1869129,-0.112176 0.281355,-0.206618 0.065584,-0.06558 0.1180864,-0.127251 0.157435,-0.184967 0.015213,-0.0211 0.038943,-0.05347 0.061351,-0.08437 0.086248,0.205149 0.1253628,0.422627 0.1256946,0.657526 -1.48e-5,0.953262 -0.7727958,1.726022 -1.7260577,1.726005 C 1.3508268,42.477242 0.57807542,41.704491 0.57806205,40.75125 0.57804561,39.797988 1.3508057,39.025207 2.3040676,39.025194 Z"
       id="path1189"
       inkscape:connector-curvature="0" />
    <path
       style="opacity:1;fill:#000000;fill-opacity:1;stroke:#ffffff;stroke-width:0.04905885;stroke-linecap:round;stroke-miterlimit:4;stroke-dasharray:none;stroke-opacity:1"
       d="M 3.4241637,39.390869 A 0.28231836,0.28231836 0 0 0 3.1418453,39.673187 0.28231836,0.28231836 0 0 0 3.4241637,39.955506 0.28231836,0.28231836 0 0 0 3.706482,39.673187 0.28231836,0.28231836 0 0 0 3.4241637,39.390869 Z m -0.1094186,0.05009 h 0.040309 v 0.05106 h -0.040309 z m 0.2024598,0.08964 c 0.0149,0 0.028937,0.0011 0.042084,0.0033 0.013147,0.0022 0.025252,0.0055 0.036355,0.0098 v 0.03813 c -0.011395,-0.0058 -0.023222,-0.01021 -0.035493,-0.01313 -0.012271,-0.0029 -0.024982,-0.0044 -0.038129,-0.0044 -0.020013,0 -0.035047,0.003 -0.045126,0.0092 -0.00993,0.0061 -0.014907,0.01536 -0.014907,0.02763 0,0.0093 0.00359,0.0167 0.010749,0.02211 0.00716,0.0053 0.021529,0.01029 0.043149,0.01511 l 0.013842,0.0031 c 0.028632,0.0061 0.048916,0.01481 0.060895,0.02606 0.012125,0.0111 0.018203,0.02669 0.018203,0.0467 0,0.02279 -0.00906,0.04081 -0.027177,0.0541 -0.017968,0.01329 -0.042727,0.01993 -0.074281,0.01993 -0.013148,0 -0.026906,-0.0013 -0.041222,-0.004 -0.01417,-0.0025 -0.029147,-0.0062 -0.044923,-0.01136 v -0.04163 c 0.0149,0.0077 0.029599,0.01355 0.044061,0.01749 0.014462,0.0038 0.028776,0.0057 0.042946,0.0057 0.018991,0 0.033582,-0.0032 0.043808,-0.0096 0.010226,-0.0066 0.015363,-0.0158 0.015363,-0.02763 0,-0.01096 -0.0037,-0.01936 -0.011155,-0.0252 -0.0073,-0.0058 -0.023493,-0.01148 -0.048473,-0.01689 l -0.013994,-0.0033 c -0.02498,-0.0053 -0.043049,-0.01328 -0.054152,-0.02409 -0.011102,-0.01096 -0.016631,-0.02593 -0.016631,-0.04492 0,-0.02308 0.00818,-0.04088 0.024541,-0.05344 0.016361,-0.01256 0.039574,-0.01886 0.069667,-0.01886 z m -0.2024598,0.0059 h 0.040309 v 0.249766 c 0,0.03126 -0.00597,0.05392 -0.017949,0.06794 -0.011832,0.01402 -0.030956,0.02104 -0.057396,0.02104 h -0.015363 v -0.03417 h 0.010749 c 0.015339,0 0.025784,-0.0036 0.031335,-0.01075 0.00555,-0.007 0.00832,-0.02171 0.00832,-0.04406 z"
       id="path1207"
       inkscape:connector-curvature="0" />
    <path
       style="opacity:1;fill:#ffffff;fill-opacity:1;stroke:#fffff9;stroke-width:0;stroke-linecap:round;stroke-miterlimit:4;stroke-dasharray:none;stroke-opacity:1"
       d="M 2.0943893,42.460671 C 1.7717964,42.415912 1.4716402,42.28935 1.2318831,42.096993 1.141797,42.024717 1.001851,41.880742 0.93276034,41.789258 0.58870892,41.333698 0.49226951,40.748396 0.67220721,40.20793 0.86425083,39.631103 1.3497398,39.195771 1.9425574,39.068823 c 0.3005985,-0.06437 0.6581081,-0.04654 0.9382879,0.0468 0.051634,0.0172 0.1094572,0.03937 0.128497,0.04927 l 0.034618,0.01799 -0.064249,0.02932 c -0.2567669,0.117192 -0.4690475,0.364306 -0.5192727,0.60448 -0.016115,0.07706 -0.00663,0.241463 0.018049,0.312939 0.077195,0.223543 0.3083697,0.439608 0.5249794,0.490666 0.1653508,0.03898 0.3484426,-6.58e-4 0.5158103,-0.111658 0.08814,-0.05846 0.2649675,-0.236416 0.329711,-0.331823 l 0.052064,-0.07672 0.014124,0.0338 c 0.027362,0.06549 0.05967,0.178385 0.080565,0.281535 0.018635,0.09199 0.021124,0.130784 0.021124,0.32915 0,0.198567 -0.00248,0.237108 -0.021192,0.329502 -0.072122,0.356099 -0.2409254,0.665527 -0.4993333,0.915315 -0.2500061,0.241667 -0.5452755,0.392426 -0.8988719,0.458947 -0.089919,0.01692 -0.4129554,0.02483 -0.5030794,0.01233 z"
       id="path1232"
       inkscape:connector-curvature="0" />
  </g>
</svg>
